Patient4_TMGait_0pt7_01_right_37_EMG.mot
version=1
nRows=40
nColumns=33
inDegrees=no
endheader
time	1LAddLong	2LGlutMax	3LGlutMed	4LIliopsoas	5LSemiMemb	6LBicFemLong	7LRecFem	8LVastMed	9LVastLat	10LGasMed	11LTibAnt	12lTibPost	13LPeroneusLong	14LSol	15LExtDigLong	16LFlexDigLong	17RAddLong	18RGlutMax	19RGlutMed	20RIliopsoas	21RSemiMemb	22RBicFemLong	23RRecFem	24RVastMed	25RVastLat	26RGasMed	27RTibAnt	28RTibPost	29RPeroneusLong	30RSol	31RExtDigLong	32RFlexDigLong
42.625	-0.017395	1.0611	0.15854	0.009766	0.018921	-0.009613	0.092468	0.023193	0.019684	-0.015106	-0.006561	-0.009613	-0.05249	0.14404	0.2356	0.012512	0.036011	-1.0887	-0.39291	0.036469	-0.18127	-0.49774	0.513	0.007172	-0.25497	0.13245	0.29251	-0.054169	-0.699	-0.50919	-0.00061	-0.01236
42.626	-0.007477	1.1391	0.16129	-0.022125	0.015411	-0.027313	-0.015564	0.002594	0.019836	-0.014038	0.17548	-0.016937	-0.070801	0.11017	0.21927	0.001526	0.033417	-1.1421	-0.76843	0.001984	-0.098267	-0.57327	0.52078	0.054321	-0.088806	0.032349	0.39383	-0.15198	-0.55084	-0.52902	-0.000458	-0.016022
42.627	-0.008087	1.162	0.1831	-0.009155	0.017853	-0.014343	-0.071716	-0.000763	0.03067	-0.024109	0.13992	-0.038605	-0.096741	0.13138	-0.25269	-0.006256	0.053253	-1.1229	-0.22064	-0.002136	-0.16983	-0.41916	0.55908	0.005188	0.024719	-0.004883	0.60928	0.11429	-0.059662	-0.42328	-0.00412	-0.007782
42.628	-0.018158	1.1743	0.15182	0.003815	0.020447	-0.012054	0.017242	0.005035	0.008087	-0.024109	-0.15152	-0.019531	-0.046539	0.024567	-0.20004	-0.004883	0.076599	-1.2253	-0.37521	-0.001678	-0.17883	-0.33524	0.7019	-0.09201	-0.042572	-0.037842	0.75378	0.25421	0.11383	-0.1593	-0.002747	-0.009766
42.629	-0.019684	1.1984	0.10132	-0.006104	0.024719	-0.018311	0.060272	0.005951	0.002441	-0.029297	-0.33005	-0.010529	-0.081024	-0.030823	-0.035553	-0.000916	0.062103	-1.264	-0.12924	0.020752	-0.090179	-0.46341	0.92651	-0.13763	-0.064545	0.00824	0.57678	0.41	0.55145	0.26504	-0.003357	-0.013123
42.63	-0.021362	1.1745	0.084381	-0.000305	0.019531	-0.014191	0.08728	0.010071	0.012512	0.002289	-0.25559	-0.015564	-0.083618	-0.1355	0.3064	-0.003204	0.046234	-1.2289	0.3273	-0.037842	0.35568	-0.54428	1.0545	-0.019684	-0.14847	0.033264	0.25467	0.11841	0.022583	-0.1709	-0.003815	-0.002594
42.631	-0.013733	1.2442	0.075073	-0.001526	0.026398	-0.018463	-0.008698	0.010529	0.014648	0.007782	-0.19486	0.003204	-0.080109	-0.11887	0.31296	0.002441	-0.030365	-1.1411	-0.23285	0.003815	0.26001	-0.001984	1.138	0.097198	-0.23163	0.051575	-0.83542	0.039215	-0.37857	-0.048981	0	-0.004883
42.632	-0.0177	1.2465	0.087433	0.001984	0.018463	-0.011444	-0.17044	0.019531	0.010071	0.031891	-0.11017	0.001373	-0.098419	-0.092163	-0.10391	0.003662	-0.027008	-1.261	-0.79071	0.086823	-0.037689	0.15366	1.118	0.054474	-0.2803	0.042725	-1.5907	0.023499	0.1712	-0.49057	-0.00351	0.003204
42.633	-0.013428	1.245	0.088196	-0.012207	0.014038	-0.018768	-0.067749	0.015411	0.011139	0.012665	-0.006256	0.006561	-0.11993	-0.041504	0.096741	0.002899	0.028687	-1.2935	-0.94544	0.11536	0.01358	0.12985	0.86029	0.062866	-0.28686	0.008698	-1.4571	-0.031281	-0.36209	-0.3894	-0.003967	0.00824
42.634	-0.009766	1.2115	0.039063	-0.029602	0.018616	-0.001678	-0.033875	0.018158	0.021057	-0.007782	-0.14755	-0.001526	-0.044861	0.077209	0.16098	-0.001373	0.032806	-1.1984	-0.037842	0.073242	-0.15076	-0.1506	0.49576	0.10605	-0.1355	-0.069733	-0.67139	-0.15121	-1.0402	-0.27496	-0.003052	0.003662
42.635	-0.006104	1.1862	0.035095	-0.036163	0.02121	-0.007324	-0.068207	0.021515	0.028229	-0.003204	-0.23086	-0.018005	-0.031738	0.066223	0.05661	-0.016327	0.023956	-1.2662	0.34012	0.0354	-0.24139	-0.36148	0.043945	-0.062561	0.045929	0.070343	1.0005	-0.068054	-0.60547	-0.49972	-0.003052	0.019989
42.636	-0.001831	1.174	0.002136	-0.012207	0.014343	-0.019073	-0.082092	0.015869	0.044403	0.017853	-0.056915	0.001678	-0.090027	0.053558	0.037384	-0.003357	-0.014954	-1.2946	-0.35248	0.033722	-0.31952	-0.55496	-0.1088	-0.050964	0.18204	0.11261	1.7903	0.11246	0.60852	-0.52597	-0.00946	0.011597
42.637	-0.002899	1.1551	-0.005035	-0.006561	0.024109	-0.029602	-0.12146	0.00885	0.039673	0.018005	0.092163	0.005188	-0.11673	0.046844	-0.20233	0.001984	-0.1329	-1.265	-0.034485	-0.037079	0.065918	-0.2179	-0.071564	0.35416	0.27268	0.051575	1.1736	0.021057	0.77164	-0.24414	-0.002747	-0.003357
42.638	-0.000305	1.1253	0.027161	-0.003357	0.018616	-0.017242	-0.16586	0.006561	0.068665	0.022736	0.063934	0.003204	-0.070038	-0.05249	-0.33417	-0.005188	-0.15305	-1.3863	-0.11124	-0.09552	0.28564	0.077209	-0.008698	0.40451	0.13123	-0.006256	0.634	-0.024109	0.28336	0.040283	-0.007935	-0.004272
42.639	-0.007172	1.1031	0.042419	-0.00946	0.023346	-0.024109	-0.13519	-0.005341	0.07843	0.046997	0.011902	0.003662	-0.066528	-0.15823	-0.35889	-0.010986	-0.091705	-1.5254	-0.65948	-0.015869	0.000305	0.21698	0.13702	0.20035	0.025635	-0.066528	-0.69885	-0.036011	0.15533	0.21042	-0.010834	-0.003357
42.64	0.007782	1.0301	0.045471	-0.014343	0.020752	-0.0354	-0.049744	-0.00946	0.079498	0.045166	-0.039673	0.001221	-0.057831	-0.047607	-0.21576	-0.005035	-0.06012	-1.4967	-0.7695	0.042725	-0.081024	0.20508	0.21606	0.13351	0.016937	-0.13947	-0.97855	-0.037994	0.54153	0.046387	-0.00351	-0.003967
42.641	0.004578	0.98953	0.005646	-0.003967	0.018616	-0.030365	0.049591	-0.016937	0.079803	0.059357	-0.048981	0.002899	-0.065002	0.026398	-0.015717	-0.014191	-0.026398	-1.4594	-0.40985	0.033722	0.018311	0.14404	0.15717	0.12421	0.016479	-0.14694	-0.55069	-0.040588	0.38559	-0.25284	-0.003052	-0.006409
42.642	0.006256	0.93262	-0.045624	0.008392	0.022125	-0.020905	0.15747	-0.013428	0.059204	0.077057	0.014954	0.002136	-0.13702	0.012817	0.1947	-0.000916	0.032043	-1.4314	-0.76889	0.043488	0.14786	-0.027466	0.20309	0.078125	0.01358	-0.024109	-0.439	-0.038147	0.2182	-0.25665	-0.002899	-0.018311
42.643	0.001831	0.858	-0.063171	0.023041	0.021667	-0.002289	0.12283	-0.008392	0.040283	0.08667	0.1503	0	-0.18875	-0.007324	0.7164	0.002289	0.001373	-1.3235	-0.64957	0.029602	-0.11505	-0.06958	0.14969	0.092316	-0.019684	-0.019073	-0.177	-0.033417	0.20294	-0.21362	-0.006256	-0.016785
42.644	-0.003815	0.81955	-0.047607	0.028534	0.021515	-0.019836	0.15503	-0.00473	0.032806	0.067444	0.071716	0.000305	-0.17029	0.083008	0.067596	0.014801	-0.09613	-1.322	0.24353	-0.026245	0.001526	-0.12131	0.26154	0.039063	-0.051727	0.049133	-0.14771	-0.032959	0.12573	0.077057	-0.001373	-0.007477
42.645	-0.001526	0.77896	-0.045166	0.002441	0.022888	-0.019226	0.27039	-0.003662	0.042725	0.041809	0.092926	-0.002594	-0.13825	0.17609	-0.30045	0.011444	-0.087128	-1.393	0.30075	0.033722	-0.12238	-0.2385	0.2771	0.14069	-0.063477	0.065155	0.028992	-0.03952	0.093536	0.13779	-0.001068	-0.007935
42.646	-0.001831	0.75577	-0.035248	-0.014191	0.027771	-0.004578	0.27969	0.001678	0.049591	0.029297	0.21255	-0.001984	-0.1001	0.22537	-0.50842	0.032043	-0.093384	-1.3632	0.21912	0.04776	0.24536	-0.50903	0.29129	0.25085	0.17166	-0.093384	0.072784	-0.044708	0.16312	0.57037	-0.001373	0.002899
42.647	-0.000458	0.75638	-0.027924	0.001831	0.021362	-0.00885	0.21255	0.004272	0.031586	0.007629	0.18341	0.00351	0.001984	0.26977	0.16693	0.021057	-0.067596	-1.1113	0.2858	0.018616	0.65018	-0.52277	0.41122	0.17975	0.70404	-0.16495	-0.001984	-0.030975	0.22308	0.58227	-0.008087	0.011902
42.648	-0.002899	0.73685	-0.059204	0.013428	0.023651	-0.027161	0.15152	0.006104	0.022888	0.036926	-0.021973	-0.005646	0.02121	0.20889	-0.10254	0.019684	-0.068665	-0.84503	0.40771	-0.066833	0.26123	-0.10849	0.22934	0.20355	0.74249	-0.000916	-0.11475	-0.028534	0.16861	0.51636	-0.004272	0.031738
42.649	0.001831	0.71152	-0.096893	-0.012054	0.026855	-0.005341	0.18875	0.009308	0.01297	0.10101	-0.095062	0.007477	-0.062256	0.075836	-0.16937	0.014038	-0.071259	-0.66071	0.18967	-0.13397	0.03952	0.015411	-0.054474	0.03067	0.86456	0.15411	-0.13718	-0.047302	0.2713	0.4921	-0.002289	0.019531
42.65	-0.006256	0.63767	-0.083923	-0.022888	0.02655	-0.019836	0.27039	0.001984	0.004272	0.094452	-0.047302	0.001678	-0.087128	0.02182	-0.22461	0.005188	-0.058441	-0.58502	-0.15503	-0.15335	0.069122	-0.064392	-0.28656	-0.10788	0.84991	0.017395	0.41168	0.070953	0.014191	0.14679	-0.003662	0.014191
42.651	0.002594	0.62454	-0.086975	-0.009766	0.027313	-0.015564	0.31097	-0.005798	-0.005798	0.043335	-0.041962	-0.001678	-0.050201	0.11429	-0.16052	0.018005	-0.016479	-0.50888	-0.16632	-0.010376	0.06012	-0.15961	-0.25131	-0.22797	0.54321	-0.035248	0.69458	0.040588	-0.24262	-0.25391	-0.003052	0.00946
42.652	0.002136	0.59509	-0.11185	0.011597	0.026093	-0.017242	0.30167	0.006409	-0.010834	0.016022	-0.058899	0.000305	-0.011139	0.26672	0.094604	0.032501	-0.01236	-0.27969	0.15793	0.059052	0.06134	-0.13321	-0.38681	-0.10498	-0.098724	0.011139	0.49622	0.023346	-0.24063	-0.31464	-0.003967	0.01358
42.653	0.005646	0.5629	-0.14862	0.045624	0.028992	-0.01358	0.23407	-0.001526	-0.028687	-0.010376	-0.27191	-0.008392	0.046082	0.26321	0.21515	0.008392	-0.018768	-0.002289	-0.25971	0.10483	0.071106	-0.2385	-0.504	0.12253	-0.69138	0.046082	0.43488	-0.08255	-0.054016	-0.3186	-0.002441	0.014191
42.654	0.00946	0.51987	-0.14313	0.073853	0.03067	-0.018005	0.22003	-0.013275	-0.012054	-0.012512	-0.19241	0.007782	0.073853	0.10803	0.19287	-0.008698	0.001373	0.25681	-0.15747	0.076447	0.010529	-0.60577	-0.14206	0.027924	-1.3414	0.067749	0.3833	0.007782	-0.10178	-0.35996	-0.00061	0.014191
42.655	0.00412	0.49515	-0.078278	0.026398	0.025177	-0.03006	0.30777	-0.017853	-0.001068	0.057831	0.092773	0.006866	-0.10147	0.030518	0.2179	-0.002441	0.019531	0.59341	-0.050507	0.002747	-0.11261	-0.57861	0.15778	0.007172	-1.6547	0.066071	-0.16617	-0.029449	-0.11459	-0.36087	0.000305	0.008545
42.656	0.005035	0.42252	-0.063782	-0.019836	0.02655	-0.03418	0.28122	-0.004425	0.008545	0.086517	0.053711	0.001831	-0.15274	0.012512	0.16739	-0.003204	0.079346	0.88562	-0.25803	-0.039063	-0.11154	-0.60364	0.20844	-0.092926	-0.78049	0.03418	-0.72388	0.028687	-0.10681	-0.29236	-0.000916	0.000916
42.657	0.000763	0.35248	-0.054779	-0.00473	0.026245	-0.037689	0.27618	0.004578	-0.005188	0.066071	0.017395	0.001221	-0.11032	0.028687	-0.004883	0.00351	0.11429	1.0229	-0.38895	-0.023193	-0.041046	-0.54535	0.13229	-0.071869	-0.22614	0.01297	-0.76111	0.018616	-0.013885	-0.059052	0.006409	-0.004578
42.658	0.001984	0.31311	-0.10452	0.007477	0.027313	-0.02594	0.224	0.016937	-0.008698	0.029907	0.04303	0.003357	-0.046692	-0.041046	-0.035553	0.019989	0.10956	1.235	-0.26215	-0.009003	-0.092621	-0.30945	0.085754	-0.06134	-0.042572	-0.008392	-0.49042	-0.019684	0.075378	-0.11307	0.002289	-0.016174
42.659	0.006561	0.25436	-0.18967	-0.007629	0.026703	-0.02594	0.19562	0.025024	-0.019073	0.031281	0.085297	0.005646	-0.089722	-0.005341	0.50629	-0.001221	0.07309	1.4824	-0.023041	0.027618	-0.29999	0.03418	0.097198	-0.070496	-0.092316	-0.008545	-0.26535	-0.020905	-0.074921	-0.47012	-0.000305	-0.003204
42.66	0.002441	0.21851	-0.15381	-0.011444	0.032196	-0.033569	0.30731	0.028534	-0.025024	0.045471	-0.02121	0.002441	-0.12299	0.062866	0.9494	-0.008698	-0.027771	1.5611	0.009918	0.01297	-0.51224	0.46524	0.097198	0.068817	-0.047607	-0.011749	-0.3717	-0.019989	-0.003815	-0.34668	-0.001068	-0.015869
42.661	0.005188	0.22217	-0.15076	-0.033112	0.033264	-0.025787	0.41336	0.023193	-0.027161	0.071106	-0.032654	-0.004425	-0.13763	0.026245	-0.121	-0.011749	-0.12726	1.6924	0.007477	0.040588	-0.24338	0.89523	-0.023651	0.10544	0.002747	-0.041199	-0.2388	-0.029449	0.009918	-0.21439	-0.001221	-0.020599
42.662	0.012054	0.25604	-0.12222	-0.015717	0.033875	-0.028534	0.42694	0.022278	-0.015869	0.05661	0.084839	0.006409	-0.053101	0.099182	-0.35431	-0.010834	-0.090942	1.759	-0.20691	0.10727	0.043182	0.83557	-0.064545	0.23682	0.029144	-0.054321	-0.080872	-0.05249	-0.041046	-0.12787	0.00824	-0.023346
42.663	0.014496	0.29434	-0.12375	-0.016785	0.028839	-0.038757	0.46158	0.022125	-0.015564	0.054474	0.15869	-0.028229	-0.037842	0.067444	-0.52475	-0.011444	-0.046692	1.7096	-0.40131	0.098877	0.47882	0.07309	-0.050049	0.28717	0.06424	-0.064697	-0.19287	-0.076141	-0.17746	0.12482	-0.00061	-0.015869
42.664	0.011597	0.29053	-0.16495	-0.015259	0.036469	-0.043945	0.48553	0.017395	-0.011139	0.066071	0.11765	-0.010071	-0.061188	0.023804	-0.39154	-0.014191	-0.001526	1.834	-0.42053	0.055695	0.78445	-0.46539	-0.041962	0.20706	-0.014954	-0.17029	-0.10819	-0.086975	-0.19089	0.50278	-0.00473	-0.020905
